<?xml version="1.0" standalone="no"?>
<!DOCTYPE svg PUBLIC "-//W3C//DTD SVG 20010904//EN"
 "http://www.w3.org/TR/2001/REC-SVG-20010904/DTD/svg10.dtd">
<svg version="1.0" xmlns="http://www.w3.org/2000/svg"
 width="1000.000000pt" height="820.000000pt" viewBox="0 0 1000.000000 820.000000"
 preserveAspectRatio="xMidYMid meet">

<g transform="translate(0.000000,820.000000) scale(0.100000,-0.100000)"
fill="#000000" stroke="none">
<path d="M1776 7379 c-257 -6 -331 -10 -337 -21 -15 -22 0 -885 16 -921 7 -16
32 -17 377 -15 l369 3 -1 410 c-1 390 -5 529 -16 547 -3 4 -22 7 -42 6 -20 -1
-185 -5 -366 -9z m387 -35 c-3 -9 -8 -11 -12 -6 -3 6 -24 12 -46 15 -36 3 -35
4 12 5 44 2 51 -1 46 -14z m-376 0 c-3 -3 -12 -4 -19 -1 -8 3 -5 6 6 6 11 1
17 -2 13 -5z m-287 -27 c-14 -6 -28 -16 -32 -22 -5 -6 -8 -4 -8 6 0 22 9 29
39 28 l26 0 -25 -12z m118 6 c-15 -2 -42 -2 -60 0 -18 2 -6 4 27 4 33 0 48 -2
33 -4z m514 -415 c2 -222 2 -405 0 -408 -3 -5 -604 -2 -609 3 -1 2 -6 175 -9
386 -6 324 -5 384 7 392 21 13 133 11 147 -3 7 -7 12 -23 12 -36 0 -23 2 -24
58 -18 73 7 77 7 135 0 46 -6 47 -5 47 20 0 57 16 66 116 66 l92 0 4 -402z
m-665 320 c-2 -13 -4 -5 -4 17 -1 22 1 32 4 23 2 -10 2 -28 0 -40z m430 36 c6
-18 -23 -24 -56 -11 -23 8 -38 8 -64 -1 -45 -16 -77 -15 -77 2 0 11 15 16 53
18 97 6 140 3 144 -8z m-417 -104 c0 -16 -2 -30 -4 -30 -2 0 -6 14 -8 30 -3
17 -1 30 4 30 4 0 8 -13 8 -30z m7 -347 c-3 -10 -5 -4 -5 12 0 17 2 24 5 18 2
-7 2 -21 0 -30z m684 -330 c-8 -14 -10 -3 -11 43 0 33 3 64 8 68 11 12 14 -92
3 -111z"/>
<path d="M1550 7174 c0 -8 -4 -13 -9 -10 -14 9 -21 -22 -11 -49 5 -14 20 -29
32 -34 14 -5 18 -10 10 -15 -7 -4 -10 -12 -6 -17 3 -5 0 -8 -8 -7 -22 5 -22
-48 1 -64 20 -14 20 -14 1 -31 -24 -20 -27 -82 -5 -91 15 -5 18 -56 3 -56 -13
0 -9 -45 4 -58 20 -20 56 -14 74 13 20 30 15 56 -13 70 l-21 11 25 22 c28 25
25 55 -9 85 l-21 18 21 15 c29 20 29 60 0 75 -13 6 -24 13 -26 15 -2 1 6 12
17 23 24 24 27 66 7 87 -20 19 -66 18 -66 -2z"/>
<path d="M1664 7139 c-17 -28 16 -32 207 -20 266 15 269 31 7 31 -138 0 -209
-4 -214 -11z"/>
<path d="M1672 7010 c3 -13 30 -15 203 -11 110 2 202 5 204 7 16 14 -35 19
-210 19 -174 1 -199 -1 -197 -15z"/>
<path d="M1672 6893 c3 -17 19 -18 188 -15 195 4 233 8 209 23 -8 5 -101 9
-207 9 -179 0 -193 -1 -190 -17z"/>
<path d="M1680 6785 c-10 -12 -9 -16 5 -21 21 -9 369 1 384 10 31 20 -16 26
-188 26 -155 0 -191 -3 -201 -15z"/>
<path d="M1550 6700 c-24 -24 -25 -48 -4 -78 30 -44 104 -16 104 39 0 19 -45
59 -66 59 -8 0 -23 -9 -34 -20z m63 -35 c-3 -9 -8 -14 -10 -11 -3 3 -2 9 2 15
9 16 15 13 8 -4z"/>
<path d="M1675 6649 c-4 -6 -4 -13 -1 -16 6 -6 408 -4 414 2 2 2 1 8 -3 14 -4
7 -75 11 -205 11 -130 0 -201 -4 -205 -11z"/>
<path d="M4221 7370 l-325 -5 34 -29 34 -28 241 6 c132 4 449 6 705 5 256 -2
790 -2 1187 0 572 3 726 1 738 -9 12 -10 15 -10 15 0 0 8 3 11 6 7 9 -9 66 22
59 33 -17 27 -134 30 -1238 28 -623 -2 -1278 -5 -1456 -8z"/>
<path d="M3115 7355 c-22 -8 -41 -15 -42 -15 -7 0 -34 -64 -42 -101 -13 -57
-14 -505 -3 -1224 5 -319 8 -701 8 -848 l-1 -268 25 3 25 3 0 615 c0 338 -2
856 -5 1150 -5 509 -4 537 14 578 12 28 28 47 45 54 15 5 179 12 379 15 250 4
352 9 349 17 -2 6 -9 11 -15 11 -6 0 -17 6 -23 13 -20 19 -659 16 -714 -3z"/>
<path d="M6160 7301 l-45 -6 49 -8 c27 -4 151 -7 275 -8 124 0 247 -4 274 -8
36 -6 52 -4 69 8 l22 15 -24 7 c-31 9 -558 8 -620 0z"/>
<path d="M6948 7293 c-26 -7 -29 -29 -12 -91 13 -47 16 -136 19 -527 1 -258 7
-760 14 -1115 27 -1532 34 -2405 24 -2830 -7 -286 -14 -433 -22 -450 -9 -20
-11 -8 -6 70 14 256 17 881 6 1320 -12 501 -27 1561 -37 2695 -6 774 -15 906
-58 889 -10 -4 -11 -17 0 -72 30 -160 35 -330 39 -1334 2 -563 9 -1347 16
-1743 13 -793 13 -1562 -2 -1753 -8 -117 -10 -125 -41 -162 -22 -29 -39 -40
-58 -40 -15 0 -48 -3 -74 -6 l-46 -7 0 39 c0 59 -25 162 -55 228 -14 32 -25
59 -23 60 65 28 84 44 102 91 19 48 20 91 29 900 5 565 5 1016 -2 1345 -14
660 -22 1069 -31 1640 -7 502 -11 545 -58 598 -24 28 -67 36 -86 16 -24 -23
-20 -31 19 -38 41 -8 61 -34 70 -92 4 -22 8 -339 9 -705 1 -365 7 -1031 14
-1479 10 -626 10 -880 1 -1095 -15 -369 -20 -686 -9 -655 12 38 11 12 -5 -164
-18 -190 -29 -237 -63 -271 -26 -26 -25 -29 3 -19 26 10 47 63 60 153 l12 86
2 -67 c1 -66 -14 -164 -27 -172 -4 -2 -23 -7 -43 -11 -34 -6 -36 -5 -73 51
-80 120 -206 217 -270 208 -27 -4 -35 0 -61 37 -58 80 -141 146 -250 200 -116
56 -138 78 -161 155 -20 69 -34 85 -119 129 -53 28 -78 35 -102 31 -23 -3 -33
-1 -33 8 0 22 39 166 100 366 33 107 71 247 85 310 15 63 29 122 32 130 4 8 5
18 5 23 -3 13 30 152 38 161 5 5 6 15 3 23 -3 8 7 45 22 83 33 82 29 119 -18
172 -52 59 -109 72 -203 43 -43 -13 -54 -23 -91 -77 -37 -54 -114 -236 -193
-453 -22 -61 -77 -191 -163 -390 -64 -149 -72 -170 -123 -335 -52 -167 -204
-562 -272 -707 l-69 -148 -84 -3 -85 -3 -48 106 c-57 124 -150 269 -201 313
-19 17 -56 55 -82 84 -25 29 -63 65 -85 80 -78 54 -169 45 -213 -20 -35 -52
-33 -107 9 -209 18 -44 39 -103 45 -130 16 -67 29 -213 19 -219 -4 -3 -109 0
-234 6 -125 5 -229 8 -231 6 -7 -7 93 -19 222 -27 l130 -7 -155 2 c-143 2
-160 4 -205 26 -27 14 -57 36 -67 50 -32 46 -41 188 -35 575 3 198 3 446 -2
550 -7 178 -8 164 -12 -230 -8 -865 -9 -860 59 -924 l37 -34 -44 6 c-24 3 -56
14 -70 25 -26 19 -26 21 -26 153 0 74 2 258 5 409 4 206 -1 1105 -10 1722 0
11 -6 15 -19 11 -18 -5 -19 -14 -14 -236 3 -128 -1 -479 -8 -782 -8 -302 -14
-696 -14 -875 0 -373 4 -402 65 -450 l37 -29 224 -6 c123 -3 260 -8 304 -11
l80 -5 37 -62 c40 -67 138 -266 138 -281 0 -10 -597 -1 -726 10 l-71 7 -5 91
c-4 79 -14 117 -71 286 -79 232 -88 298 -63 485 24 186 39 443 33 583 -4 109
-10 144 -41 247 -21 69 -51 144 -72 179 l-37 59 12 201 c6 110 11 290 11 399
0 190 -1 197 -20 197 -20 0 -20 -7 -20 -375 0 -345 -6 -424 -25 -348 -3 15 -3
184 1 375 l7 348 -25 0 -25 0 -6 -157 c-4 -87 -7 -227 -7 -310 0 -88 -4 -153
-9 -153 -5 0 -42 7 -81 15 -102 21 -133 11 -206 -69 -61 -66 -279 -411 -335
-530 -17 -36 -41 -117 -54 -178 -31 -155 -82 -275 -167 -401 -21 -31 -46 -76
-54 -100 -22 -60 -21 -188 4 -362 12 -82 28 -252 37 -376 8 -125 27 -329 41
-455 47 -417 26 -539 -159 -924 -125 -259 -367 -828 -367 -861 0 -14 60 -10
65 4 50 153 137 352 264 607 256 514 277 587 268 935 -4 121 -13 287 -21 368
-9 81 -20 228 -26 325 -6 97 -20 234 -31 304 -21 137 -24 296 -9 368 6 25 49
124 95 220 75 154 88 188 104 280 22 122 29 143 74 213 18 28 73 129 121 222
100 196 192 323 246 342 37 13 158 17 184 7 9 -3 16 -14 16 -24 0 -19 -9 -22
-96 -35 -113 -17 -141 -82 -154 -355 -4 -96 -16 -211 -25 -255 -9 -44 -16
-119 -17 -168 0 -76 -2 -89 -19 -97 -25 -14 -24 -40 1 -40 24 0 24 -5 4 -133
-20 -126 -37 -174 -76 -214 -30 -31 -31 -33 -14 -52 23 -25 16 -45 -41 -123
-25 -34 -54 -81 -65 -105 -19 -42 -36 -143 -25 -143 3 0 17 23 31 50 14 28 55
93 91 145 83 119 102 163 132 304 19 90 26 168 33 346 6 167 15 257 30 330 11
55 22 126 23 157 1 32 3 58 4 58 1 0 9 -14 18 -30 16 -30 16 -30 47 -14 24 13
48 15 98 11 36 -3 71 -2 77 1 5 4 13 37 16 75 11 119 20 111 65 -55 22 -84 46
-180 51 -212 18 -102 12 -241 -20 -466 -25 -175 -30 -236 -26 -330 5 -121 4
-118 98 -375 29 -81 33 -103 37 -225 3 -99 -2 -181 -17 -305 -15 -122 -21
-220 -20 -345 3 -251 -25 -364 -124 -509 -45 -65 -64 -105 -93 -199 -20 -64
-51 -162 -69 -217 -43 -126 -75 -257 -115 -460 -17 -88 -33 -168 -36 -177 -4
-15 1 -18 30 -18 42 0 34 -25 106 320 92 436 136 578 217 698 93 138 107 182
148 444 14 92 46 246 70 343 25 97 45 188 45 201 l0 24 378 -6 c207 -4 380 -9
383 -13 4 -3 23 -64 43 -136 29 -100 62 -181 146 -355 60 -124 129 -283 153
-355 25 -71 60 -173 80 -225 19 -52 40 -120 47 -150 17 -72 48 -143 109 -243
39 -66 64 -128 123 -315 l73 -232 32 0 c18 0 33 1 33 3 0 2 -34 103 -75 226
-41 122 -73 227 -70 231 3 5 1 11 -4 14 -5 4 -15 23 -22 44 -6 20 -47 109 -90
197 -71 143 -84 181 -129 355 -54 210 -61 225 -232 545 -86 161 -100 195 -131
315 -19 74 -63 204 -96 288 l-61 154 50 45 c28 25 49 47 48 49 -2 2 -27 -9
-56 -23 -39 -19 -56 -23 -64 -15 -8 8 0 23 31 57 67 72 43 72 -46 -1 l-33 -27
0 30 c0 38 18 53 105 94 l70 33 -36 4 c-31 3 -69 -8 -151 -43 -15 -6 -18 -2
-18 19 0 15 -7 61 -16 103 l-15 76 37 38 c43 45 65 49 87 17 18 -28 33 -18 17
11 -12 23 -60 231 -53 231 3 0 43 -33 90 -72 147 -126 206 -222 327 -529 79
-203 89 -237 88 -323 0 -54 -5 -75 -21 -97 -26 -35 -26 -39 -3 -39 39 0 60 43
97 205 42 179 74 265 205 550 106 230 143 327 239 618 45 137 108 309 141 383
33 74 80 192 105 262 72 200 84 229 152 362 62 122 80 151 116 179 17 13 10
-9 -38 -130 -5 -14 3 -18 43 -24 62 -8 110 -37 118 -70 6 -23 -12 -115 -23
-115 -2 0 -21 11 -42 25 -21 14 -56 28 -77 31 l-39 5 25 -18 c131 -96 139
-108 117 -198 -9 -35 -32 -116 -52 -180 l-36 -116 -50 45 c-50 45 -93 62 -140
54 -20 -3 -17 -6 19 -16 48 -14 106 -61 128 -103 20 -41 18 -43 -18 -16 -47
35 -97 59 -116 55 -10 -2 6 -16 43 -38 70 -42 110 -99 76 -112 -10 -3 -35 -3
-55 2 -34 7 -52 18 -136 77 l-25 18 23 -32 c32 -45 90 -91 132 -104 19 -6 39
-15 44 -19 4 -5 -1 -37 -12 -72 -34 -104 -132 -474 -143 -536 -9 -57 4 -162
20 -162 4 0 15 8 24 18 31 34 68 172 47 172 -6 0 -13 -14 -17 -30 -3 -17 -9
-33 -14 -35 -4 -3 1 25 11 62 10 38 28 104 39 148 12 44 29 86 38 93 29 21
116 15 153 -10 52 -35 46 -48 -8 -21 -34 17 -57 22 -76 17 -25 -6 -21 -9 51
-45 103 -51 108 -56 122 -114 6 -27 27 -99 45 -160 19 -60 32 -111 31 -113 -2
-2 -12 1 -23 7 -24 13 -121 14 -140 2 -9 -5 7 -11 45 -15 117 -13 160 -68 149
-189 -3 -37 -19 -127 -34 -200 -26 -125 -27 -145 -26 -387 1 -140 6 -273 12
-295 8 -33 10 -16 11 100 2 296 36 752 60 817 7 19 8 18 20 -9 15 -36 57 -78
89 -88 32 -9 27 6 -14 46 -20 18 -45 53 -55 76 -17 37 -69 244 -69 274 0 19
91 4 147 -25 57 -29 105 -77 208 -211 106 -135 109 -143 101 -290 -8 -146 2
-173 34 -89 25 67 36 155 26 208 -4 20 -29 68 -56 108 -27 39 -47 76 -44 80 8
12 79 -30 120 -70 33 -32 104 -130 104 -143 0 -4 -10 -10 -22 -13 l-23 -7 25
-10 c44 -18 99 -81 120 -137 27 -72 36 -185 21 -264 -7 -35 -39 -121 -70 -193
-35 -78 -79 -203 -111 -314 -58 -206 -77 -252 -213 -531 -104 -214 -126 -290
-107 -372 5 -24 10 -64 10 -90 0 -26 14 -100 31 -165 17 -65 48 -183 68 -263
l37 -145 33 -3 33 -3 -6 38 c-4 21 -25 98 -47 170 -53 178 -80 341 -82 488
l-2 120 87 180 c100 207 139 312 208 550 27 94 69 217 93 275 24 58 52 128 61
157 l17 52 67 6 c177 15 169 13 206 56 39 46 52 98 66 265 19 234 13 3349 -8
3859 -7 160 -12 436 -12 615 1 308 -6 405 -30 450 -6 11 -12 19 -13 19 -1 -1
-9 -3 -19 -6z m-1160 -2699 c40 -27 43 -47 22 -110 -25 -72 -35 -83 -49 -55
-13 24 -61 51 -90 51 l-20 0 20 48 c35 82 68 101 117 66z m-73 -154 c3 -6 -1
-7 -9 -4 -18 7 -21 14 -7 14 6 0 13 -4 16 -10z m-2668 -352 c31 -36 34 -55 17
-129 -15 -68 -16 -69 -37 -54 -27 19 -53 19 -104 1 l-40 -14 -7 51 c-10 89 -7
112 17 134 28 26 43 31 93 32 30 1 46 -5 61 -21z m-43 -207 c6 -9 -84 -25 -92
-16 -7 6 38 24 65 24 12 1 24 -3 27 -8z m1030 -810 c22 -24 46 -103 46 -150 0
-32 -5 -38 -41 -55 -22 -10 -43 -16 -46 -13 -3 3 12 14 33 23 l39 18 -28 4
c-16 2 -34 -2 -42 -8 -11 -9 -19 5 -41 74 -27 83 -27 86 -9 106 23 25 67 26
89 1z m1877 -92 c-28 -11 -41 -4 -41 22 0 19 1 19 32 3 32 -17 32 -17 9 -25z
m-1215 -460 c3 -5 -29 -9 -71 -9 -50 0 -74 4 -70 10 8 13 133 11 141 -1z m-26
-66 c0 -5 -8 -30 -19 -58 l-19 -49 -26 52 c-14 28 -26 54 -26 57 0 3 20 5 45
5 25 0 45 -3 45 -7z m2273 -300 c-22 -46 -64 -61 -171 -62 -97 -1 -84 15 17
21 87 5 122 21 149 69 24 40 28 17 5 -28z m-3115 -59 c232 -4 362 -10 362 -17
0 -6 -106 -8 -317 -3 -367 7 -491 15 -472 27 8 5 25 7 39 4 14 -2 188 -7 388
-11z m-414 -62 c3 -5 -9 -60 -27 -123 -38 -135 -50 -112 -21 39 16 84 31 110
48 84z"/>
<path d="M4243 7282 c-139 -1 -253 -5 -253 -7 0 -3 5 -13 11 -23 10 -15 24
-16 142 -10 165 9 1126 27 1507 29 181 1 270 4 245 10 -36 7 -1018 8 -1652 1z"/>
<path d="M3113 7233 c-17 -45 -18 -87 -16 -658 1 -335 5 -619 7 -630 2 -11 5
-248 5 -527 1 -450 3 -506 16 -504 14 2 16 46 16 362 1 197 -4 530 -10 739
-13 472 -14 1070 -1 1149 5 33 14 64 20 70 8 8 134 10 406 8 223 -2 394 0 394
5 0 31 -27 33 -421 33 l-397 0 -19 -47z"/>
<path d="M4988 7229 c-13 -7 -18 -23 -18 -55 0 -39 3 -46 26 -55 37 -14 61 -3
73 33 21 60 -30 108 -81 77z m70 -43 c4 -20 -13 -36 -41 -36 -23 0 -33 26 -16
46 16 20 53 14 57 -10z"/>
<path d="M5011 7187 c-12 -15 -5 -27 16 -27 7 0 13 9 13 20 0 23 -13 26 -29 7z"/>
<path d="M3392 7081 c-87 -23 -119 -115 -124 -361 -2 -117 14 -868 32 -1425 6
-170 10 -329 10 -353 0 -26 4 -41 10 -37 6 3 10 1 10 -4 0 -6 6 -11 13 -11 14
0 9 534 -13 1383 -11 461 -6 659 20 707 16 29 143 40 480 40 250 1 312 3 299
13 -8 7 -18 20 -22 30 -6 15 -25 17 -204 17 -109 0 -261 2 -338 5 -77 2 -155
1 -173 -4z"/>
<path d="M5670 7081 c-140 -4 -547 -5 -904 -2 -695 4 -659 7 -617 -42 15 -18
62 -18 1176 -12 851 5 1162 10 1167 19 12 18 9 23 -15 29 -38 10 -539 15 -807
8z"/>
<path d="M4149 6998 c13 -17 2 -18 -200 -19 -148 0 -205 -4 -184 -10 32 -10
2622 -3 2663 8 13 3 21 10 19 17 -4 13 -286 14 -982 3 -264 -4 -661 -10 -883
-14 -386 -6 -403 -5 -424 13 -19 16 -20 16 -9 2z"/>
<path d="M3397 6978 c-9 -7 -21 -26 -27 -41 -14 -40 -13 -294 2 -303 8 -5 10
22 5 107 -7 134 2 191 33 225 25 25 16 33 -13 12z"/>
<path d="M6608 6955 c-3 -3 -1 -23 4 -43 6 -22 12 -230 13 -502 2 -256 7 -602
11 -770 l9 -305 6 160 c10 221 0 1294 -12 1380 -10 67 -19 92 -31 80z"/>
<path d="M6084 6891 c-49 -22 -84 -84 -84 -150 0 -62 22 -96 76 -117 50 -19
46 -27 -21 -38 -83 -15 -179 -95 -206 -172 -8 -23 -14 -81 -14 -144 0 -125 18
-174 87 -240 71 -70 114 -84 248 -85 102 0 120 3 160 24 56 29 116 85 140 131
27 52 43 152 37 226 -6 82 -54 185 -97 211 -33 19 -37 28 -17 40 20 12 47 60
47 82 0 22 -27 41 -59 41 -24 0 -51 -46 -51 -86 0 -24 -2 -26 -31 -20 -17 3
-44 6 -60 6 -40 0 -36 13 12 44 48 32 73 83 64 130 -16 74 -87 136 -157 136
-18 0 -51 -9 -74 -19z m132 -27 c18 -15 18 -15 -3 -5 -48 24 -105 7 -153 -44
-31 -33 -33 -104 -5 -135 10 -11 13 -20 7 -20 -17 0 -42 54 -42 90 0 18 7 44
17 60 34 59 135 89 179 54z m71 -98 c3 -18 1 -41 -4 -51 -7 -12 -10 -5 -10 28
0 26 -7 57 -16 71 -24 36 -21 44 4 13 11 -15 23 -42 26 -61z m-58 48 c22 -28
29 -98 11 -109 -6 -3 -10 5 -10 19 0 48 -9 56 -62 56 -73 0 -87 -11 -81 -62 4
-40 3 -42 -11 -24 -20 25 -20 59 -1 96 20 38 41 49 92 50 33 0 46 -5 62 -26z
m-99 -107 c0 -10 -4 -15 -10 -12 -5 3 -10 18 -10 33 0 21 2 24 10 12 5 -8 10
-23 10 -33z m29 1 c1 -5 -3 -8 -9 -8 -5 0 -10 12 -9 28 0 24 1 25 9 7 5 -11 9
-23 9 -27z m31 11 c0 -35 -15 -31 -22 6 -4 17 -1 25 8 25 9 0 14 -11 14 -31z
m204 -55 c12 -5 13 -10 4 -30 -18 -38 -42 -27 -31 14 6 25 6 24 27 16z m-225
-36 c0 -28 -2 -30 -9 -13 -12 28 -12 45 0 45 6 0 10 -15 9 -32z m156 -82 c108
-51 150 -122 149 -256 -1 -110 -28 -184 -87 -236 -67 -59 -120 -78 -212 -77
-186 1 -282 90 -301 279 -8 72 9 157 38 200 49 71 148 112 273 113 75 1 99 -3
140 -23z"/>
<path d="M6097 6549 c-132 -31 -197 -117 -197 -258 0 -86 18 -156 53 -205 48
-68 210 -104 320 -72 143 42 216 220 156 381 -27 72 -58 108 -121 139 -55 28
-134 33 -211 15z m123 -19 c0 -5 -5 -10 -11 -10 -5 0 -7 5 -4 10 3 6 8 10 11
10 2 0 4 -4 4 -10z m30 -4 c0 -3 -4 -8 -10 -11 -5 -3 -10 -1 -10 4 0 6 5 11
10 11 6 0 10 -2 10 -4z m22 -18 c-7 -7 -12 -8 -12 -2 0 14 12 26 19 19 2 -3
-1 -11 -7 -17z m-147 -5 c14 -34 33 -138 28 -153 -3 -8 -10 -25 -15 -37 -15
-30 -3 -53 27 -53 14 0 25 4 25 8 0 4 17 7 38 7 20 -1 70 -2 110 -3 l72 -2 0
-29 c0 -18 -8 -34 -21 -43 -19 -12 -20 -17 -10 -36 9 -18 8 -24 -11 -42 -12
-11 -33 -19 -47 -18 -19 2 -26 -3 -31 -22 -4 -19 -14 -26 -43 -31 -34 -5 -42
-1 -39 23 1 3 -5 9 -13 12 -16 6 -39 -27 -27 -39 4 -4 -4 -5 -18 -2 -14 4 -31
7 -37 7 -7 0 -13 6 -13 14 0 17 -32 45 -37 31 -2 -5 -8 -17 -14 -25 -8 -11
-12 -12 -16 -2 -2 7 -18 19 -34 28 -27 13 -28 16 -14 30 22 22 18 43 -9 50
-33 8 -51 74 -21 74 8 0 15 4 15 9 0 21 -13 41 -26 41 -20 0 -17 34 5 54 12
11 19 31 19 54 0 42 21 61 59 54 23 -4 25 -2 20 17 -3 11 -2 19 2 17 3 -2 17
2 31 10 33 18 37 17 45 -3z m185 -12 c0 -12 -20 -25 -27 -18 -7 7 6 27 18 27
5 0 9 -4 9 -9z m30 -15 c0 -3 -4 -8 -10 -11 -5 -3 -10 -1 -10 4 0 6 5 11 10
11 6 0 10 -2 10 -4z m45 -55 c-6 -5 -25 10 -25 20 0 5 6 4 14 -3 8 -7 12 -15
11 -17z m15 -20 c0 -14 -18 -23 -30 -16 -6 4 -8 11 -5 16 8 12 35 12 35 0z
m10 -46 c7 -9 8 -15 2 -15 -5 0 -12 7 -16 15 -3 8 -4 15 -2 15 2 0 9 -7 16
-15z m10 -35 c0 -5 -4 -10 -10 -10 -5 0 -10 5 -10 10 0 6 5 10 10 10 6 0 10
-4 10 -10z"/>
<path d="M3934 6882 c-12 -9 -49 -55 -84 -101 -59 -80 -62 -87 -56 -125 4 -23
11 -72 15 -110 8 -58 14 -73 43 -105 60 -63 78 -92 78 -127 0 -19 -4 -34 -10
-34 -11 0 -60 -92 -60 -112 0 -12 48 -45 151 -107 41 -24 43 -23 79 48 12 24
19 52 17 62 -3 10 1 40 9 66 32 106 4 193 -91 281 -50 46 -56 57 -51 80 13 52
26 217 20 247 -6 30 -21 55 -33 55 -3 0 -15 -8 -27 -18z m33 -35 c-5 -33 -46
-111 -54 -104 -2 3 6 20 17 40 12 20 23 48 24 64 4 33 4 33 12 33 4 0 4 -15 1
-33z m-27 -1 c0 -8 -14 -37 -31 -64 -55 -90 -50 -178 21 -312 35 -67 35 -33 0
41 -35 75 -37 95 -10 102 15 4 22 -3 31 -31 7 -20 39 -63 74 -98 76 -76 93
-126 76 -220 -6 -32 -15 -62 -20 -67 -6 -6 -32 3 -68 25 -52 31 -58 37 -55 64
4 44 -9 71 -71 146 -60 73 -68 100 -66 218 1 54 6 71 27 100 14 19 30 37 34
38 4 2 8 10 8 17 0 7 7 15 15 19 8 3 15 12 15 21 0 8 5 15 10 15 6 0 10 -6 10
-14z m20 -111 c-31 -63 -50 -82 -50 -49 0 22 73 139 78 125 2 -6 -11 -40 -28
-76z m13 -57 c-7 -39 -23 -61 -23 -32 0 30 11 64 21 64 5 0 6 -15 2 -32z m-53
-40 c0 -16 -3 -19 -11 -11 -6 6 -8 16 -5 22 11 17 16 13 16 -11z m27 -450 c15
-7 33 -20 40 -28 7 -8 13 -12 13 -8 0 4 11 -3 25 -16 21 -19 24 -28 16 -47 -5
-13 -10 -18 -10 -12 -1 7 -21 22 -45 34 -25 11 -50 27 -57 35 -6 7 -15 11 -20
8 -10 -6 -12 7 -3 30 7 19 6 19 41 4z"/>
<path d="M3930 6543 c1 -18 18 -35 24 -24 4 6 4 16 1 21 -7 12 -25 13 -25 3z"/>
<path d="M4473 6888 c-20 -32 -31 -81 -23 -106 5 -15 11 -52 14 -82 3 -30 8
-71 11 -91 7 -34 3 -40 -54 -101 -91 -98 -115 -168 -90 -263 6 -22 11 -53 10
-70 -2 -31 47 -135 63 -135 18 0 186 112 186 125 0 25 -50 126 -60 120 -6 -4
-10 9 -10 29 0 31 9 46 60 98 62 64 65 69 74 153 3 28 8 66 12 85 5 32 -1 44
-69 136 -64 86 -92 114 -112 114 -2 0 -7 -6 -12 -12z m27 -41 c0 -12 11 -43
25 -70 32 -59 26 -62 -8 -4 -31 52 -44 97 -28 97 6 0 11 -10 11 -23z m40 -13
c0 -8 5 -14 11 -14 7 0 9 -9 6 -21 -4 -15 -2 -19 9 -15 8 3 25 -11 44 -39 25
-37 29 -48 20 -65 -6 -11 -7 -20 -2 -20 9 0 7 -69 -4 -139 -3 -20 -22 -51 -48
-80 -65 -70 -76 -91 -76 -141 0 -45 -1 -46 -56 -78 -31 -18 -59 -32 -63 -32
-12 0 -31 74 -31 121 1 60 28 117 93 186 29 33 57 72 61 86 6 25 33 37 49 21
6 -6 -12 -69 -37 -126 -9 -21 -13 -38 -8 -38 12 0 42 65 58 125 22 80 18 133
-16 200 -30 60 -39 102 -20 90 6 -3 10 -13 10 -21z m-26 -83 c39 -63 44 -81
23 -81 -15 0 -67 95 -67 123 0 27 6 21 44 -42z m-9 -93 c5 -18 3 -28 -4 -28
-6 0 -11 6 -11 13 0 6 -3 23 -6 37 -5 17 -4 22 4 15 6 -5 14 -22 17 -37z m55
-24 c0 -16 -16 -19 -25 -4 -8 13 4 32 16 25 5 -4 9 -13 9 -21z m-18 -472 c-7
-2 -9 -9 -6 -14 4 -6 2 -8 -4 -4 -6 3 -14 1 -18 -5 -3 -6 -22 -17 -40 -25 -19
-8 -34 -18 -34 -22 0 -5 -7 -9 -15 -9 -22 0 -29 30 -10 42 10 6 33 22 52 37
20 15 39 25 44 23 4 -3 11 0 15 6 5 8 10 6 17 -7 7 -13 7 -19 -1 -22z"/>
<path d="M4505 6540 c3 -5 1 -10 -5 -10 -6 0 -8 -4 -5 -10 3 -5 11 -10 16 -10
6 0 7 5 4 10 -3 6 -1 10 5 10 6 0 8 5 5 10 -3 6 -11 10 -16 10 -6 0 -7 -4 -4
-10z"/>
<path d="M4160 6789 c-36 -12 -69 -24 -73 -29 -9 -8 88 -90 107 -90 46 1 194
66 180 80 -22 21 -105 60 -126 59 -13 0 -52 -9 -88 -20z"/>
<path d="M4044 6736 c-3 -9 -4 -54 -3 -101 4 -81 6 -87 34 -109 17 -14 47 -34
68 -46 l37 -21 0 93 0 94 -52 45 c-70 59 -77 63 -84 45z"/>
<path d="M4282 6678 l-84 -41 4 -91 c3 -50 9 -90 14 -89 5 1 48 20 97 42 98
45 93 37 81 160 -4 35 -12 61 -18 60 -6 0 -49 -19 -94 -41z"/>
<path d="M7752 6693 l-154 -4 4 -193 c1 -107 6 -197 9 -200 9 -9 1180 -18
1243 -9 l59 8 -2 190 c-1 105 -7 194 -12 199 -9 10 -846 16 -1147 9z m875 -34
l243 -2 1 -86 c1 -47 3 -120 5 -162 l3 -76 -157 -5 c-162 -5 -1071 -2 -1077 4
-3 3 -8 225 -6 290 l1 37 295 -1 c163 0 299 2 302 6 4 3 38 4 76 1 39 -2 180
-5 314 -6z"/>
<path d="M7415 6664 c-50 -17 -80 -35 -107 -64 -21 -21 -38 -44 -38 -50 0 -5
24 -11 53 -12 l52 -1 -65 -6 -65 -6 -12 -80 c-6 -44 -12 -109 -12 -144 -1 -35
-6 -80 -12 -100 -7 -25 -7 -44 0 -63 10 -27 13 -28 90 -28 76 0 79 -1 85 -25
8 -33 47 -57 91 -57 44 0 83 24 91 57 l6 25 139 0 c128 0 139 -1 139 -18 0
-32 43 -63 87 -64 52 0 82 17 89 51 6 27 8 28 87 35 45 3 103 6 130 6 43 0 47
-2 47 -24 0 -57 111 -90 157 -47 20 19 21 19 38 1 9 -10 28 -20 42 -23 33 -6
90 10 101 29 7 13 11 12 27 -6 13 -15 31 -20 67 -20 53 0 83 20 94 64 4 19 14
25 50 31 l44 6 0 65 0 64 -670 0 -670 0 0 135 0 134 -62 4 -63 3 63 2 62 2 0
75 0 75 -42 -1 c-24 -1 -74 -12 -113 -25z m132 0 c-3 -3 -12 -4 -19 -1 -8 3
-5 6 6 6 11 1 17 -2 13 -5z m-127 -31 c-8 -3 -24 -10 -35 -15 -20 -9 -20 -9
-1 6 11 9 27 16 35 15 14 0 14 -1 1 -6z m122 2 c2 -3 3 -18 0 -34 -4 -28 -4
-28 -95 -34 -50 -3 -93 -4 -96 -2 -11 12 28 37 83 54 61 20 98 25 108 16z
m-202 -50 c-13 -14 -26 -22 -29 -19 -3 3 5 14 18 25 33 27 39 24 11 -6z m205
-107 c3 -18 3 -46 1 -63 -2 -16 -4 -58 -5 -92 l-1 -63 -54 0 c-52 0 -54 1 -60
31 -11 58 -7 109 9 109 11 0 15 12 15 44 0 41 -2 45 -30 51 -16 4 -54 3 -84 0
-57 -7 -66 -17 -66 -71 0 -27 35 -37 96 -28 l44 6 0 -71 0 -71 -85 0 c-70 0
-85 3 -85 16 0 23 21 207 26 222 2 9 39 12 138 12 l135 0 6 -32z m-113 -28
c-2 -14 -5 -26 -5 -26 -1 -1 -32 -4 -69 -6 l-68 -4 0 33 0 34 73 -3 c70 -3 72
-4 69 -28z m1453 -255 c0 -39 -1 -40 -38 -43 -29 -3 -45 3 -68 22 -38 32 -66
33 -111 2 l-34 -23 -28 23 c-35 31 -64 30 -110 -1 l-36 -24 -26 26 c-21 21
-32 24 -61 20 -20 -4 -48 -18 -63 -32 -26 -25 -31 -26 -126 -23 l-99 3 -3 42
-3 43 308 3 c169 1 351 2 403 2 l95 0 0 -40z m-832 -2 c9 -51 -9 -59 -50 -22
-19 16 -43 29 -54 29 -25 0 -71 -23 -88 -44 -11 -13 -39 -16 -153 -16 l-140 0
-35 30 c-18 17 -43 30 -54 30 -27 0 -75 -26 -82 -45 -5 -12 -24 -15 -87 -15
-79 0 -80 0 -80 26 0 14 5 34 10 45 10 18 25 19 409 19 l398 0 6 -37z m-532
-44 c27 -27 21 -66 -13 -92 -24 -18 -30 -18 -58 -7 -51 21 -65 65 -30 100 26
26 74 26 101 -1z m467 1 c26 -24 28 -47 6 -78 -20 -29 -76 -30 -104 -2 -60 60
36 138 98 80z m434 3 c20 -18 24 -73 6 -91 -7 -7 -28 -12 -48 -12 -20 0 -41 5
-48 12 -15 15 -16 63 -2 89 13 24 66 26 92 2z m172 1 c20 -20 21 -78 1 -94
-19 -16 -71 -15 -91 1 -19 16 -18 68 3 91 20 22 66 24 87 2z m170 3 c28 -20
18 -77 -16 -97 -25 -13 -31 -13 -55 0 -34 19 -43 69 -18 94 20 19 64 21 89 3z"/>
<path d="M7464 6454 c-8 -41 4 -57 37 -52 20 2 24 10 27 46 3 41 2 42 -27 42
-27 0 -31 -4 -37 -36z m46 -3 c0 -16 -6 -31 -15 -35 -12 -4 -15 3 -15 29 0 24
5 35 15 35 10 0 15 -10 15 -29z"/>
<path d="M7448 6153 c-39 -10 -33 -79 8 -89 44 -11 74 37 47 75 -14 21 -22 23
-55 14z m45 -25 c7 -21 -4 -38 -23 -38 -23 0 -34 16 -26 35 7 18 43 20 49 3z"/>
<path d="M7908 6149 c-36 -21 -16 -79 27 -79 12 0 26 5 33 12 7 7 12 21 12 33
0 40 -35 56 -72 34z m50 -35 c2 -12 -4 -24 -12 -27 -19 -7 -40 18 -32 39 8 22
40 13 44 -12z"/>
<path d="M8344 6135 c-35 -53 18 -97 64 -52 24 25 25 27 8 51 -21 33 -51 33
-72 1z m54 -22 c-3 -31 -34 -44 -44 -19 -7 19 12 46 33 46 10 0 13 -9 11 -27z"/>
<path d="M8518 6149 c-36 -20 -12 -89 31 -89 41 0 58 70 22 90 -24 12 -31 12
-53 -1z m52 -24 c10 -12 10 -18 0 -30 -25 -30 -61 -7 -46 30 3 8 12 15 19 15
8 0 20 -7 27 -15z"/>
<path d="M8685 6140 c-27 -29 -7 -70 34 -70 43 0 59 60 22 80 -27 14 -35 13
-56 -10z m53 -23 c4 -20 -25 -34 -40 -19 -15 15 -1 44 19 40 10 -2 19 -11 21
-21z"/>
<path d="M3368 5992 c1 -240 4 -446 6 -457 2 -11 4 183 5 432 0 248 -3 454 -7
457 -4 2 -6 -192 -4 -432z"/>
<path d="M2474 6356 c-34 -15 -68 -63 -80 -111 -3 -16 -12 -37 -19 -45 -20
-25 -25 -49 -15 -75 11 -30 39 -43 50 -25 6 9 12 4 24 -17 14 -29 70 -62 82
-50 4 3 -8 19 -26 36 -26 23 -34 39 -37 78 -6 59 19 97 75 114 68 20 118 -19
129 -100 6 -46 23 -46 23 0 0 47 -26 96 -59 113 -67 35 -153 9 -188 -56 -16
-30 -18 -31 -21 -11 -9 59 68 133 139 133 89 0 139 -66 139 -182 0 -45 -2 -49
-39 -68 -23 -11 -55 -19 -78 -17 -34 2 -38 0 -38 -23 0 -37 26 -36 95 4 34 20
67 36 75 36 18 0 45 39 45 66 0 12 -8 32 -19 45 -10 13 -22 35 -26 49 -12 41
-55 91 -91 106 -42 17 -100 17 -140 0z"/>
<path d="M2625 6025 c-37 -18 -98 -19 -141 -3 -42 15 -66 3 -143 -68 l-56 -52
0 -129 c0 -124 1 -131 28 -171 28 -44 33 -57 17 -47 -5 3 -21 3 -35 -1 -23 -6
-25 -10 -25 -64 0 -32 3 -72 6 -89 l7 -31 307 0 308 0 6 23 c7 29 7 82 0 130
-6 36 -8 37 -46 37 -34 0 -39 3 -33 18 32 76 36 242 8 317 -15 40 -31 59 -81
98 -67 50 -80 53 -127 32z m75 -40 c7 -8 16 -12 21 -9 5 3 9 2 8 -3 -1 -4 4
-22 10 -40 13 -32 21 -243 10 -243 -8 0 -33 -53 -30 -63 1 -5 -6 -6 -16 -3
-10 3 -39 6 -65 7 -27 1 -48 5 -48 7 0 3 9 15 20 27 11 12 23 32 25 45 5 25
-31 168 -48 188 -7 9 -5 16 8 26 10 7 16 19 13 27 -3 9 8 20 31 31 46 21 46
21 61 3z m-224 -8 c4 -4 18 -7 32 -7 20 0 22 -2 12 -15 -6 -8 -8 -19 -5 -26
14 -22 23 -79 13 -79 -5 0 -8 -16 -7 -34 2 -19 0 -38 -4 -42 -16 -16 -6 -78
17 -109 l24 -31 -36 -3 c-98 -8 -95 -9 -121 39 -21 37 -26 62 -29 142 -5 120
0 144 33 152 14 4 25 10 25 15 0 9 37 8 46 -2z m342 -199 c3 -70 1 -98 -7 -98
-17 0 -19 13 -24 140 -5 109 -4 113 11 85 10 -19 17 -65 20 -127z m-469 -90
c1 -17 -4 -28 -13 -28 -21 0 -36 173 -19 217 7 17 30 -119 32 -189z m454 -34
c14 -5 14 -10 1 -49 -18 -52 -49 -84 -66 -67 -11 11 11 81 34 110 12 14 12 14
31 6z m-395 -61 c49 -75 21 -80 -48 -8 -29 30 -32 37 -20 45 26 17 37 11 68
-37z m302 -12 c0 -18 -9 -20 -121 -23 -100 -2 -123 0 -135 13 -8 8 -14 19 -14
22 0 4 61 7 135 7 127 0 135 -1 135 -19z m-355 -51 c3 -5 -3 -10 -15 -10 -19
0 -21 -5 -18 -57 l3 -58 270 0 270 0 3 29 c2 16 1 44 -3 62 -4 26 -11 34 -33
37 -21 3 -19 4 11 6 l37 1 0 -75 0 -75 -290 0 -290 0 0 54 c0 30 -3 61 -6 69
-4 11 2 17 18 20 13 2 26 5 30 6 4 0 10 -3 13 -9z m298 3 c-35 -2 -91 -2 -125
0 -35 2 -7 3 62 3 69 0 97 -1 63 -3z m-303 -33 c0 -5 -4 -10 -10 -10 -5 0 -10
5 -10 10 0 6 5 10 10 10 6 0 10 -4 10 -10z m50 0 c0 -5 -7 -10 -15 -10 -8 0
-15 5 -15 10 0 6 7 10 15 10 8 0 15 -4 15 -10z m70 0 c0 -5 -4 -10 -10 -10 -5
0 -10 5 -10 10 0 6 5 10 10 10 6 0 10 -4 10 -10z m40 0 c0 -5 -4 -10 -10 -10
-5 0 -10 5 -10 10 0 6 5 10 10 10 6 0 10 -4 10 -10z m40 0 c0 -5 -4 -10 -10
-10 -5 0 -10 5 -10 10 0 6 5 10 10 10 6 0 10 -4 10 -10z m40 0 c0 -5 -4 -10
-10 -10 -5 0 -10 5 -10 10 0 6 5 10 10 10 6 0 10 -4 10 -10z m40 0 c0 -5 -4
-10 -10 -10 -5 0 -10 5 -10 10 0 6 5 10 10 10 6 0 10 -4 10 -10z m40 0 c0 -5
-4 -10 -10 -10 -5 0 -10 5 -10 10 0 6 5 10 10 10 6 0 10 -4 10 -10z m40 0 c0
-5 -7 -10 -15 -10 -8 0 -15 5 -15 10 0 6 7 10 15 10 8 0 15 -4 15 -10z m30 0
c0 -5 -4 -10 -10 -10 -5 0 -10 5 -10 10 0 6 5 10 10 10 6 0 10 -4 10 -10z m60
0 c0 -5 -7 -10 -15 -10 -8 0 -15 5 -15 10 0 6 7 10 15 10 8 0 15 -4 15 -10z
m50 0 c0 -5 -9 -10 -20 -10 -11 0 -20 5 -20 10 0 6 9 10 20 10 11 0 20 -4 20
-10z m-415 -30 c3 -5 -1 -10 -10 -10 -9 0 -13 5 -10 10 3 6 8 10 10 10 2 0 7
-4 10 -10z m35 0 c0 -5 -5 -10 -11 -10 -5 0 -7 5 -4 10 3 6 8 10 11 10 2 0 4
-4 4 -10z m45 0 c3 -5 -1 -10 -9 -10 -9 0 -16 5 -16 10 0 6 4 10 9 10 6 0 13
-4 16 -10z m40 0 c3 -5 -1 -10 -10 -10 -9 0 -13 5 -10 10 3 6 8 10 10 10 2 0
7 -4 10 -10z m31 -17 c-10 -10 -19 5 -10 18 6 11 8 11 12 0 2 -7 1 -15 -2 -18z
m44 6 c0 -5 -4 -9 -10 -9 -5 0 -10 7 -10 16 0 8 5 12 10 9 6 -3 10 -10 10 -16z
m220 6 c0 -8 -6 -15 -14 -15 -17 0 -28 14 -19 24 12 12 33 6 33 -9z m-490 1
c0 -11 -19 -15 -25 -6 -3 5 1 10 9 10 9 0 16 -2 16 -4z m37 -2 c-3 -3 -12 -4
-19 -1 -8 3 -5 6 6 6 11 1 17 -2 13 -5z m273 -4 c0 -5 -4 -10 -10 -10 -5 0
-10 5 -10 10 0 6 5 10 10 10 6 0 10 -4 10 -10z m40 6 c0 -11 -19 -15 -25 -6
-3 5 1 10 9 10 9 0 16 -2 16 -4z m40 0 c0 -11 -19 -15 -25 -6 -3 5 1 10 9 10
9 0 16 -2 16 -4z m42 -8 c-9 -9 -15 -9 -24 0 -9 9 -7 12 12 12 19 0 21 -3 12
-12z m-437 -28 c3 -5 -1 -10 -10 -10 -9 0 -13 5 -10 10 3 6 8 10 10 10 2 0 7
-4 10 -10z m45 0 c0 -5 -4 -10 -10 -10 -5 0 -10 5 -10 10 0 6 5 10 10 10 6 0
10 -4 10 -10z m40 0 c0 -5 -4 -10 -10 -10 -5 0 -10 5 -10 10 0 6 5 10 10 10 6
0 10 -4 10 -10z m35 0 c3 -5 -1 -10 -9 -10 -9 0 -16 5 -16 10 0 6 4 10 9 10 6
0 13 -4 16 -10z m45 0 c0 -5 -7 -10 -15 -10 -8 0 -15 5 -15 10 0 6 7 10 15 10
8 0 15 -4 15 -10z m35 0 c3 -5 -1 -10 -10 -10 -9 0 -13 5 -10 10 3 6 8 10 10
10 2 0 7 -4 10 -10z m40 0 c3 -5 -1 -10 -10 -10 -9 0 -13 5 -10 10 3 6 8 10
10 10 2 0 7 -4 10 -10z m35 -6 c0 -8 -4 -12 -10 -9 -5 3 -10 10 -10 16 0 5 5
9 10 9 6 0 10 -7 10 -16z m40 1 c0 -8 -4 -15 -10 -15 -5 0 -10 7 -10 15 0 8 5
15 10 15 6 0 10 -7 10 -15z m40 6 c0 -6 -4 -13 -10 -16 -5 -3 -10 1 -10 9 0 9
5 16 10 16 6 0 10 -4 10 -9z m40 -1 c0 -5 -4 -10 -10 -10 -5 0 -10 5 -10 10 0
6 5 10 10 10 6 0 10 -4 10 -10z m50 0 c0 -5 -7 -10 -15 -10 -8 0 -15 5 -15 10
0 6 7 10 15 10 8 0 15 -4 15 -10z m50 0 c0 -5 -9 -10 -21 -10 -11 0 -17 5 -14
10 3 6 13 10 21 10 8 0 14 -4 14 -10z"/>
<path d="M6105 5866 c-58 -18 -151 -64 -165 -81 -10 -12 -10 -18 0 -30 11 -13
17 -12 49 7 20 12 38 25 41 28 15 18 82 34 149 34 64 0 85 -4 130 -28 65 -34
146 -108 171 -156 27 -53 35 -101 19 -111 -11 -6 -7 -15 16 -39 l30 -31 29 32
c29 32 29 33 7 40 -11 5 -21 17 -21 26 0 10 -16 51 -35 91 -42 88 -122 172
-197 207 -60 28 -154 33 -223 11z"/>
<path d="M7636 5823 c-4 -9 -4 -41 0 -70 l6 -53 40 0 39 0 -3 68 -3 67 -36 3
c-27 2 -38 -1 -43 -15z"/>
<path d="M5199 5760 c-170 -6 -179 -12 -179 -106 0 -42 -4 -66 -13 -71 -8 -4
-22 -21 -32 -36 -15 -24 -17 -41 -11 -128 l7 -101 -42 -45 -42 -46 7 -186 c4
-102 9 -202 13 -222 5 -35 8 -37 50 -43 59 -8 431 -6 503 2 l55 7 5 192 c6
234 3 253 -44 301 l-36 38 0 115 c0 110 -1 117 -25 139 -21 19 -25 33 -25 77
0 55 -19 108 -42 114 -7 2 -74 2 -149 -1z m-92 -92 c-3 -8 -6 -5 -6 6 -1 11 2
17 5 13 3 -3 4 -12 1 -19z m244 18 c8 -22 8 -86 -1 -91 -11 -7 -144 -8 -205
-2 -16 2 -42 0 -56 -4 -20 -5 -26 -3 -25 7 4 23 12 26 98 27 79 2 83 3 86 26
2 13 -2 27 -8 31 -7 4 15 8 49 8 33 0 61 -1 62 -2z m17 -131 c18 3 32 2 32 -4
0 -6 -77 -10 -195 -11 -171 -1 -208 3 -191 21 2 2 76 1 163 -3 87 -5 173 -5
191 -3z m43 -39 c2 -2 3 -56 1 -120 l-3 -116 -198 0 -198 0 -6 68 c-9 87 -9
157 0 165 7 7 397 10 404 3z m59 -280 c0 -4 -7 -5 -16 -2 -9 3 -22 6 -29 6
-10 0 -11 5 -2 25 l12 25 17 -23 c10 -12 18 -26 18 -31z m-475 24 c36 -14 22
-30 -27 -30 -40 0 -41 0 -23 20 21 23 17 23 50 10z m55 -14 c0 -3 -4 -8 -10
-11 -5 -3 -10 -1 -10 4 0 6 5 11 10 11 6 0 10 -2 10 -4z m315 -1 c-25 -8 -305
-12 -305 -4 0 5 71 9 158 8 86 0 153 -2 147 -4z m-3 -44 c4 -1 5 -74 1 -164
-4 -113 -2 -169 5 -184 9 -17 9 -22 -3 -27 -21 -8 -283 -1 -292 8 -6 6 -8 121
-5 288 l2 77 93 3 c79 3 175 2 199 -1z m41 -191 c3 -127 2 -166 -3 -110 -8 88
-13 316 -6 309 2 -2 6 -92 9 -199z m80 8 c1 -103 0 -185 -2 -183 -2 3 -12 0
-22 -6 -25 -13 -26 -2 -34 200 -7 171 -5 179 36 176 19 -1 20 -9 22 -187z
m-483 1 c0 -100 2 -185 5 -189 6 -10 -33 -20 -51 -13 -11 4 -14 38 -15 167 -1
88 -2 173 -3 189 -3 24 0 27 30 27 l33 0 1 -181z m38 -49 l-1 -155 -7 105 c-4
58 -8 146 -8 195 0 73 2 82 9 50 4 -22 7 -110 7 -195z"/>
<path d="M5351 5491 c-20 -13 -5 -73 17 -69 12 2 18 15 20 41 3 38 -8 46 -37
28z"/>
<path d="M5025 5479 c-11 -16 4 -59 20 -59 10 0 15 11 15 35 0 35 -20 49 -35
24z"/>
<path d="M5080 5455 c0 -28 4 -35 20 -35 16 0 20 7 20 35 0 28 -4 35 -20 35
-16 0 -20 -7 -20 -35z"/>
<path d="M5140 5455 c0 -31 3 -35 25 -35 22 0 25 4 25 35 0 31 -3 35 -25 35
-22 0 -25 -4 -25 -35z"/>
<path d="M5212 5458 c3 -33 4 -33 61 -36 51 -3 57 -1 57 17 0 43 -10 51 -67
51 l-54 0 3 -32z"/>
<path d="M5847 5759 c-51 -30 -39 -108 25 -157 23 -17 38 -32 33 -32 -5 0 -16
7 -26 16 -24 22 -35 13 -54 -47 -25 -74 -17 -205 17 -280 37 -81 124 -140 230
-157 137 -21 312 51 364 151 13 23 13 27 0 27 -7 0 -16 -7 -20 -15 -12 -32
-27 -15 -20 23 11 59 31 101 63 128 26 21 29 30 24 57 -24 125 -96 220 -200
262 -63 25 -75 27 -157 20 -59 -4 -104 -14 -134 -28 -36 -18 -46 -19 -50 -8
-8 23 -41 51 -59 51 -10 0 -26 -5 -36 -11z m60 -64 c1 -14 0 -15 -3 -3 -3 9
-15 19 -27 22 -18 4 -18 4 3 3 17 -1 25 -8 27 -22z m213 -10 c-16 -19 -41 -20
-34 -1 5 14 34 26 43 19 2 -1 -2 -9 -9 -18z m-236 -24 c-5 -6 -34 20 -34 30 0
5 8 1 18 -8 10 -10 17 -20 16 -22z m73 17 c-3 -8 -6 -5 -6 6 -1 11 2 17 5 13
3 -3 4 -12 1 -19z m53 -30 c0 -4 7 -8 15 -8 13 0 14 -4 4 -22 -7 -13 -11 -23
-10 -23 1 0 -2 -12 -8 -27 -9 -23 -15 -27 -41 -24 -36 4 -53 16 -23 16 19 0
21 4 16 41 -6 42 2 56 32 56 8 0 15 -4 15 -9z m306 -9 c1 -22 24 -73 36 -80
15 -9 -29 -32 -48 -25 -8 3 -14 13 -14 23 0 10 -7 31 -16 48 -14 27 -14 30 3
42 20 16 38 12 39 -8z m-188 -73 l3 -47 -44 2 c-48 3 -46 -2 -26 79 8 31 23
39 44 26 14 -10 21 -27 23 -60z m99 50 c8 -13 12 -28 17 -71 4 -30 3 -31 -29
-27 -32 4 -34 7 -43 56 -4 28 -7 54 -5 57 4 10 52 -2 60 -15z m178 -56 c3 -5
1 -10 -4 -10 -6 0 -11 5 -11 10 0 6 2 10 4 10 3 0 8 -4 11 -10z m-525 -69 c-7
-17 -10 -40 -7 -51 4 -15 0 -20 -14 -20 -24 0 -25 25 -3 80 11 28 20 38 27 31
7 -7 6 -20 -3 -40z m110 -1 c3 -2 8 -2 11 -2 3 1 6 -15 6 -34 l0 -34 -49 0
c-52 0 -56 7 -38 54 7 20 15 24 37 21 15 -2 30 -4 33 -5z m390 -24 c0 -31 -3
-34 -35 -38 -34 -4 -35 -3 -35 30 0 24 4 33 13 29 8 -3 20 -1 28 4 24 15 29
10 29 -25z m58 22 c15 -15 16 -45 1 -53 -13 -9 -22 0 -24 23 0 9 -4 23 -9 30
-9 16 16 16 32 0z m-318 -40 c0 -25 -3 -28 -35 -28 -37 0 -52 17 -42 44 4 10
18 14 41 13 32 -2 36 -5 36 -29z m133 11 c6 -24 -1 -29 -39 -29 -26 0 -33 4
-37 25 -4 24 -2 26 34 23 26 -1 39 -7 42 -19z m-251 -104 c4 -20 -1 -25 -33
-33 -41 -10 -49 -3 -49 42 0 19 4 21 39 18 31 -3 40 -8 43 -27z m118 -2 c0
-19 -4 -24 -16 -19 -9 3 -24 6 -34 6 -10 0 -19 9 -22 23 -4 20 -1 22 34 19 33
-4 38 -7 38 -29z m137 2 c-9 -7 -14 -15 -10 -18 3 -4 -3 -7 -15 -7 -11 0 -24
5 -27 10 -4 6 -11 8 -16 5 -5 -4 -9 3 -9 14 0 16 8 20 43 23 45 3 60 -8 34
-27z m-400 3 c-3 -8 -6 -5 -6 6 -1 11 2 17 5 13 3 -3 4 -12 1 -19z m523 -6 c0
-21 -5 -28 -20 -28 -11 0 -20 4 -20 8 0 4 -9 8 -20 8 -22 0 -23 1 -14 24 4 10
18 16 40 16 31 0 34 -3 34 -28z m-262 -117 c-3 -23 -5 -24 -19 -13 -10 7 -20
23 -24 36 -5 17 -1 24 17 31 25 9 32 -5 26 -54z m136 43 c-9 -60 -11 -63 -40
-63 -26 0 -29 4 -32 37 -3 38 -5 37 64 47 6 0 10 -9 8 -21z m66 11 c0 -6 9 -9
20 -6 11 3 20 3 20 0 0 -14 -45 -83 -54 -83 -9 0 -13 42 -7 88 1 15 21 16 21
1z m-285 -51 c7 -21 9 -35 4 -32 -5 3 -9 2 -9 -3 0 -4 -14 -9 -30 -10 -18 -1
-28 2 -25 7 4 6 0 12 -7 15 -8 3 -15 18 -16 34 -2 26 0 28 34 27 32 -1 37 -5
49 -38z m95 -78 c0 -5 -7 -10 -15 -10 -8 0 -15 5 -15 10 0 6 7 10 15 10 8 0
15 -4 15 -10z m80 -12 c0 -6 -3 -8 -7 -5 -3 4 -12 -1 -19 -11 -7 -9 -16 -13
-21 -8 -4 5 -2 11 5 13 6 3 10 9 6 14 -3 5 4 9 15 9 12 0 21 -5 21 -12z"/>
<path d="M7657 5683 c-4 -3 -7 -16 -7 -29 0 -12 -9 -41 -20 -65 -26 -58 -26
-109 2 -144 l21 -27 15 28 c9 16 15 45 13 65 -1 19 5 52 14 72 8 20 15 52 15
72 0 30 -3 35 -23 35 -13 0 -27 -3 -30 -7z"/>
<path d="M7770 5564 c6 -14 10 -37 10 -50 0 -23 -3 -25 -29 -19 -40 9 -53 -8
-136 -174 l-69 -140 -96 -3 -95 -3 -9 -72 c-5 -41 -5 -105 0 -150 l9 -78 335
-3 c184 -2 363 0 398 3 l63 7 -3 151 -3 152 -99 1 -99 2 -75 123 c-61 102 -72
126 -63 141 26 42 2 138 -34 138 -11 0 -12 -6 -5 -26z m-40 -98 c0 -2 -7 -9
-15 -16 -13 -11 -14 -10 -9 4 5 14 24 23 24 12z m-34 -52 c-6 -14 0 -16 38
-12 l45 5 66 -104 c36 -57 65 -109 65 -114 0 -7 -61 -9 -165 -7 -91 2 -165 5
-165 7 0 9 113 241 118 241 2 0 1 -7 -2 -16z m-133 -271 c-29 -2 -78 -2 -110
0 -32 2 -8 3 52 3 61 0 87 -1 58 -3z m367 -85 c-1 -49 -3 -59 -11 -45 -8 14
-8 63 0 105 1 1 3 2 6 2 3 0 5 -28 5 -62z m147 40 c2 -17 0 -19 -7 -8 -5 8 -6
18 -4 22 8 12 10 10 11 -14z m-252 -57 c4 -36 9 -74 11 -83 4 -12 0 -18 -10
-18 -13 0 -16 12 -16 59 0 33 -4 70 -9 84 -7 18 -6 24 4 24 10 0 16 -21 20
-66z m152 -53 c-2 -24 -4 -5 -4 42 0 47 2 66 4 43 2 -24 2 -62 0 -85z m54 110
c5 -81 4 -150 -3 -154 -4 -3 -8 14 -9 38 0 24 -2 62 -5 86 -4 27 -2 42 5 42 6
0 11 -6 12 -12z m-483 -15 c0 -10 3 -46 7 -80 6 -45 5 -63 -4 -63 -6 0 -11 15
-11 33 0 17 -5 49 -11 70 -10 37 -6 57 11 57 5 0 9 -8 8 -17z m62 -14 c3 -13
2 -49 -1 -79 -8 -72 -11 -65 -24 49 -6 50 -5 63 6 59 7 -2 15 -15 19 -29z
m107 -1 c-3 -7 -5 -2 -5 12 0 14 2 19 5 13 2 -7 2 -19 0 -25z m43 -55 c-11
-17 -11 -17 -6 0 3 10 7 35 8 55 l1 37 4 -37 c2 -21 -1 -46 -7 -55z m107 65
c-3 -8 -6 -5 -6 6 -1 11 2 17 5 13 3 -3 4 -12 1 -19z m-440 -10 c-3 -8 -6 -5
-6 6 -1 11 2 17 5 13 3 -3 4 -12 1 -19z m233 -73 l-7 -60 -2 56 c0 31 2 59 6
62 10 11 10 7 3 -58z m224 -46 c-13 -22 -21 -5 -21 44 l1 52 13 -44 c7 -24 10
-48 7 -52z m-177 9 c-2 -13 -4 -3 -4 22 0 25 2 35 4 23 2 -13 2 -33 0 -45z
m-266 -1 c-10 -9 -11 -8 -5 6 3 10 9 15 12 12 3 -3 0 -11 -7 -18z m676 -9 c-3
-8 -6 -5 -6 6 -1 11 2 17 5 13 3 -3 4 -12 1 -19z m-569 -45 c-10 -2 -26 -2
-35 0 -10 3 -2 5 17 5 19 0 27 -2 18 -5z m69 1 c-3 -3 -12 -4 -19 -1 -8 3 -5
6 6 6 11 1 17 -2 13 -5z"/>
<path d="M6487 5420 c-29 -23 -67 -88 -67 -115 0 -32 96 -10 143 33 30 28 34
49 15 75 -22 28 -61 31 -91 7z m68 -40 c0 -18 -6 -26 -23 -28 -27 -4 -40 22
-22 44 19 22 45 13 45 -16z"/>
<path d="M6517 5385 c-8 -18 11 -31 25 -17 11 11 3 32 -12 32 -4 0 -10 -7 -13
-15z"/>
<path d="M2035 5120 c-66 -22 -234 -70 -374 -105 -139 -36 -273 -74 -297 -84
l-44 -20 1 -293 c1 -161 4 -304 8 -318 8 -29 193 -148 348 -225 l92 -45 163
71 c233 101 686 320 690 333 9 26 -10 568 -20 578 -14 14 -366 137 -411 143
-26 4 -70 -6 -156 -35z m239 -17 c15 -8 3 -16 -68 -42 -48 -17 -92 -31 -99
-31 -7 1 -37 11 -66 24 l-55 24 94 30 c85 27 97 29 135 17 23 -6 49 -16 59
-22z m181 -55 c58 -18 105 -35 105 -40 0 -4 -15 -10 -34 -13 -25 -5 -46 0 -82
18 -27 14 -68 30 -91 37 -45 14 -57 30 -23 30 12 0 68 -14 125 -32z m-443 -4
c48 -25 51 -27 33 -40 -31 -23 -52 -15 -125 43 -5 5 21 23 33 23 4 0 31 -12
59 -26z m362 -20 c79 -33 113 -54 87 -54 -8 0 -90 33 -196 80 -19 8 -19 9 2 9
11 1 60 -15 107 -35z m-429 -18 c23 -20 26 -25 12 -26 -27 0 -100 52 -85 61
14 9 30 1 73 -35z m403 -6 c40 -18 70 -35 67 -39 -3 -3 -27 -13 -52 -23 l-45
-17 -92 46 -91 46 35 13 c48 19 93 12 178 -26z m-465 -2 l50 -32 -53 -18 -52
-17 -61 25 c-34 15 -66 29 -72 32 -8 5 87 34 129 41 5 0 32 -13 59 -31z m197
-34 c-25 -14 -53 -26 -62 -27 -10 -1 -18 -6 -18 -11 0 -5 -3 -7 -6 -3 -4 3
-22 0 -41 -8 -22 -9 -41 -12 -50 -6 -19 10 -5 20 31 23 14 1 26 6 26 11 0 4 4
6 9 3 11 -7 71 16 71 27 0 4 4 6 9 2 5 -3 12 -2 15 3 2 4 17 8 33 10 25 2 24
0 -17 -24z m-363 -11 c34 -16 63 -31 63 -35 0 -3 -21 -13 -46 -22 l-47 -16
-60 37 -60 37 29 13 c42 18 52 16 121 -14z m871 -110 l-3 -136 -28 -10 c-16
-5 -30 -7 -32 -6 -2 2 -6 64 -10 136 l-8 133 24 9 c60 24 60 24 57 -126z
m-993 71 c57 -38 68 -54 37 -54 -19 0 -121 69 -122 83 0 16 33 5 85 -29z m899
-96 c5 -87 3 -135 -4 -142 -7 -7 -10 10 -11 55 0 35 -4 97 -8 137 -4 40 -5 75
-2 77 14 15 19 -8 25 -127z m-959 82 c30 -22 55 -45 55 -49 0 -5 -13 -14 -30
-19 -26 -9 -41 -6 -116 29 -47 23 -83 43 -80 46 3 3 29 11 58 19 29 7 54 13
56 13 2 1 27 -17 57 -39z m919 3 c3 -21 6 -84 6 -140 l0 -101 -47 -16 c-25 -9
-48 -14 -50 -13 -4 5 -24 269 -21 272 4 3 91 33 99 34 4 1 9 -16 13 -36z
m-199 17 c-3 -5 -13 -10 -21 -10 -8 0 -14 -5 -14 -11 0 -5 -4 -8 -8 -5 -5 3
-21 -2 -37 -10 -15 -8 -42 -17 -59 -20 -17 -3 -33 -8 -36 -12 -9 -13 -63 -7
-68 7 -3 8 0 11 7 7 6 -4 11 -2 11 4 0 6 4 9 9 5 9 -5 60 13 111 41 29 16 114
19 105 4z m-339 -61 l89 -42 -40 -18 c-52 -23 -62 -23 -94 0 -15 11 -52 31
-82 44 l-54 25 35 15 c19 9 40 16 46 17 6 0 51 -19 100 -41z m398 14 c2 -10 7
-72 11 -138 l6 -120 -126 -44 c-146 -51 -145 -51 -145 45 0 34 -3 88 -6 120
l-6 60 118 46 c138 53 141 54 148 31z m-879 -32 l70 -38 3 -146 3 -145 -78 34
-78 33 -3 151 c-1 82 1 150 5 149 5 0 40 -17 78 -38z m372 -28 c65 -36 74 -47
48 -56 -16 -7 -165 80 -165 96 0 15 49 -2 117 -40z m-66 -15 c38 -24 69 -46
69 -49 0 -4 -13 -12 -28 -18 -24 -10 -38 -8 -98 17 -38 16 -83 36 -99 45 -27
14 -28 16 -10 22 11 4 29 10 40 15 36 16 56 10 126 -32z m277 -35 c-2 -9 -14
-17 -28 -18 -14 -1 -33 -5 -43 -10 -13 -5 -16 -4 -11 9 3 9 10 13 15 10 5 -2
21 2 36 10 35 19 35 19 31 -1z m-421 -15 c7 -1 10 -5 7 -10 -3 -5 -14 -6 -24
-3 -12 4 -22 -1 -29 -12 -9 -16 -10 -14 -11 11 0 25 3 27 23 21 12 -3 27 -7
34 -7z m113 -69 c0 -5 -11 1 -25 13 -14 12 -25 23 -25 25 0 2 11 -4 25 -13 14
-9 25 -20 25 -25z m120 37 c0 -2 -8 -10 -17 -17 -16 -13 -17 -12 -4 4 13 16
21 21 21 13z m192 -109 l-5 -88 -34 -14 c-20 -8 -37 -15 -39 -15 -2 0 -4 36
-4 80 0 77 3 86 32 81 4 0 12 8 18 19 6 11 16 18 22 14 6 -4 8 2 4 17 -5 17
-4 19 2 9 5 -8 7 -55 4 -103z m568 -45 l0 -118 -35 -17 c-20 -9 -38 -17 -40
-17 -3 0 -5 35 -5 78 0 75 1 77 30 94 48 27 36 68 -14 48 -40 -15 -34 17 7 34
57 26 57 26 57 -102z m-962 65 c18 -10 37 -15 42 -12 6 3 10 1 10 -5 0 -7 8
-9 19 -5 16 5 19 1 19 -29 0 -20 3 -63 7 -96 7 -58 1 -72 -21 -50 -6 6 -20 12
-31 14 -11 2 -43 19 -71 36 -46 28 -52 36 -52 64 0 18 -3 54 -6 80 l-7 46 29
-13 c16 -7 44 -20 62 -30z m852 -2 c0 -8 -4 -15 -9 -15 -13 0 -22 16 -14 24
11 11 23 6 23 -9z m-30 -15 c0 -5 -10 -12 -22 -16 -35 -10 -46 -23 -41 -44 4
-15 11 -18 33 -14 26 6 28 3 34 -32 16 -107 14 -114 -31 -141 l-42 -24 -6 33
c-3 18 -7 78 -8 132 l-2 99 35 12 c35 13 50 11 50 -5z m-549 -114 c0 -28 -7
-43 -15 -35 -5 5 -9 113 -5 144 2 25 20 -70 20 -109z m-97 91 c3 4 15 8 24 10
15 2 18 -3 14 -26 -2 -15 1 -44 6 -63 10 -38 0 -68 -23 -68 -7 0 -20 -7 -29
-15 -24 -24 -31 2 -28 95 3 64 6 79 16 71 7 -6 16 -8 20 -4z m516 -50 c0 -18
5 -66 12 -109 12 -81 8 -95 -34 -111 -28 -10 -33 11 -29 128 2 87 6 112 19
121 23 17 32 8 32 -29z m169 -72 c-1 -60 -2 -65 -9 -35 -8 32 -14 100 -11 125
1 6 6 3 11 -5 5 -8 9 -46 9 -85z m-1107 52 c2 -7 1 -55 -2 -107 -6 -87 -7 -90
-9 -30 -1 36 -6 86 -10 112 -6 35 -5 45 5 41 7 -2 14 -10 16 -16z m839 -20
c-13 -13 -15 1 -4 30 7 17 8 17 11 -1 2 -10 -1 -23 -7 -29z m-41 -70 c0 -50 4
-107 9 -124 5 -18 6 -32 3 -31 -4 2 -18 -5 -32 -14 -14 -9 -32 -18 -40 -20 -8
-2 -18 -7 -22 -13 -7 -9 -11 48 -12 195 -1 65 -1 65 34 82 58 30 60 28 60 -75z
m-680 15 c1 -15 3 -70 6 -123 5 -83 4 -96 -10 -96 -9 0 -16 4 -16 9 0 4 -7 8
-15 8 -19 0 -24 112 -9 207 6 38 9 41 25 32 11 -6 19 -21 19 -37z m543 -9 c3
-27 9 -89 13 -140 l6 -92 -131 -65 c-72 -36 -138 -66 -146 -66 -12 0 -15 21
-17 125 -1 69 -2 137 -2 152 -1 25 7 30 129 80 72 29 133 53 136 53 4 0 9 -21
12 -47z m-425 -18 c20 -14 54 -30 75 -36 23 -6 37 -16 37 -25 0 -13 -7 -15
-37 -9 -21 5 -46 8 -55 9 -10 0 -18 3 -18 7 0 4 -13 9 -30 13 -25 5 -30 10
-30 36 0 37 10 37 58 5z m-29 -91 c6 4 11 2 11 -4 0 -7 7 -9 18 -5 12 4 14 3
6 -5 -16 -16 -64 -2 -64 19 0 13 2 13 9 2 5 -7 14 -10 20 -7z m69 -71 c58 7
70 -6 73 -80 1 -35 0 -65 -3 -68 -3 -3 -18 0 -34 6 -16 7 -32 12 -36 11 -5 -1
-8 3 -8 8 0 6 -20 20 -45 32 -41 20 -45 25 -45 59 0 31 4 38 23 41 12 2 25 -1
28 -6 4 -5 25 -6 47 -3z"/>
<path d="M2175 4801 c-44 -15 -80 -33 -79 -39 4 -41 4 -42 37 -35 51 10 156
47 157 56 2 57 -1 57 -115 18z"/>
<path d="M2140 4706 c-26 -10 -36 -19 -38 -39 -4 -32 -1 -32 55 -11 34 13 43
22 43 40 0 27 -9 28 -60 10z"/>
<path d="M1372 4814 c2 -15 9 -29 16 -32 10 -3 13 4 10 24 -2 15 -9 29 -16 32
-10 3 -13 -4 -10 -24z"/>
<path d="M1422 4793 c4 -39 28 -42 28 -4 0 21 -5 31 -16 31 -11 0 -14 -8 -12
-27z"/>
<path d="M1470 4776 c0 -17 5 -26 16 -26 10 0 14 7 12 22 -5 32 -28 35 -28 4z"/>
<path d="M2000 4405 c0 -19 5 -35 10 -35 6 0 10 16 10 35 0 19 -4 35 -10 35
-5 0 -10 -16 -10 -35z"/>
<path d="M1957 4413 c-14 -13 -7 -63 8 -63 10 0 15 11 15 35 0 33 -8 43 -23
28z"/>
<path d="M1905 4394 c-6 -2 -9 -20 -7 -38 5 -46 32 -37 32 10 0 33 -4 37 -25
28z"/>
<path d="M1852 4371 c-18 -11 -11 -66 8 -66 10 0 16 12 18 38 3 37 -2 43 -26
28z"/>
<path d="M1797 4353 c-4 -3 -7 -22 -7 -40 0 -27 4 -34 18 -31 22 4 31 78 9 78
-7 0 -17 -3 -20 -7z"/>
<path d="M3383 4935 c0 -27 2 -38 4 -22 2 15 2 37 0 50 -2 12 -4 0 -4 -28z"/>
<path d="M3383 4795 c4 -38 10 -207 14 -375 7 -315 20 -374 22 -100 1 194 -18
522 -31 535 -7 7 -9 -13 -5 -60z"/>
<path d="M6658 4495 c2 -198 8 -400 13 -450 4 -51 5 71 2 285 -3 206 -9 409
-13 450 -4 41 -5 -87 -2 -285z"/>
<path d="M8436 4763 c-3 -4 -4 -176 -1 -382 4 -336 3 -369 -9 -306 -21 110
-58 249 -69 263 -8 10 -49 13 -178 10 -92 -2 -171 -6 -175 -10 -4 -5 -9 -56
-12 -115 -4 -85 -9 -113 -23 -132 -16 -19 -19 -41 -19 -120 0 -53 3 -119 6
-148 6 -43 10 -52 30 -57 13 -4 24 -11 24 -16 0 -6 9 -19 20 -30 30 -30 76
-26 112 10 28 28 34 30 106 30 75 0 77 -1 94 -30 24 -42 77 -42 119 -1 16 16
39 31 52 33 19 3 22 10 25 53 2 32 -2 61 -12 80 -12 24 -18 89 -25 305 -5 151
-6 278 -2 282 3 4 71 10 151 14 151 7 180 14 180 41 0 14 -18 15 -170 10
l-170 -5 0 94 c0 53 -5 104 -10 115 -11 19 -31 25 -44 12z m29 -79 c-4 -90
-15 -94 -15 -6 0 40 4 72 10 72 5 0 8 -28 5 -66z m2 -256 c-2 -24 -4 -7 -4 37
0 44 2 63 4 43 2 -21 2 -57 0 -80z m333 102 c0 -5 -19 -10 -42 -10 -24 0 -95
-3 -158 -6 -63 -4 -112 -3 -108 1 4 4 71 11 150 15 79 4 146 8 151 8 4 1 7 -2
7 -8z m-322 -403 c-1 -167 -3 -194 -9 -127 -11 127 -11 352 0 345 6 -3 9 -94
9 -218z m-121 148 c7 -27 12 -59 12 -70 -1 -11 -8 5 -16 37 -11 42 -20 58 -36
62 -36 9 -251 6 -267 -4 -12 -7 -15 -31 -15 -104 0 -52 5 -100 10 -105 6 -6
54 -17 107 -26 121 -19 128 -22 128 -49 0 -41 32 -79 70 -82 55 -6 62 4 50 66
-16 83 -10 92 11 15 27 -100 29 -96 -43 -93 l-63 3 -22 44 c-12 24 -24 48 -26
54 -2 6 -55 18 -118 27 l-114 16 -3 133 -3 132 163 -3 162 -3 13 -50z m-32
-19 c13 -30 65 -270 65 -297 0 -6 -15 -9 -32 -7 -29 3 -35 9 -51 53 -21 57
-26 61 -82 70 -39 5 -43 9 -54 48 -16 54 -37 87 -56 87 -18 0 -20 -45 -5 -86
13 -33 10 -37 -24 -28 -26 6 -26 7 -26 100 l0 94 126 0 125 0 14 -34z m52
-108 c-3 -8 -6 -5 -6 6 -1 11 2 17 5 13 3 -3 4 -12 1 -19z m10 -50 c-3 -8 -6
-5 -6 6 -1 11 2 17 5 13 3 -3 4 -12 1 -19z m-302 -73 c112 -12 153 -26 165
-56 6 -14 12 -33 13 -40 5 -31 19 -36 97 -38 100 -3 130 -13 130 -44 0 -13 6
-29 13 -36 10 -11 9 -12 -3 -5 -8 4 -25 21 -38 36 -34 40 -83 39 -121 -2 -24
-27 -35 -31 -82 -32 -81 -1 -84 0 -117 32 -39 37 -80 39 -119 6 l-29 -25 -3
109 c-2 101 -1 109 16 106 10 -2 46 -7 78 -11z m41 -220 c34 -52 -31 -111 -76
-70 -24 22 -26 52 -3 77 23 26 59 23 79 -7z m308 19 c21 -8 21 -62 -1 -86 -33
-37 -76 -13 -76 43 0 42 33 60 77 43z"/>
<path d="M8062 3798 c-28 -28 2 -67 37 -48 25 13 28 45 5 54 -22 8 -28 8 -42
-6z"/>
<path d="M8382 3811 c-8 -4 -12 -19 -10 -32 4 -30 52 -40 62 -13 15 40 -17 68
-52 45z"/>
<path d="M8538 4693 l-2 -78 -3 73 c-3 52 -7 72 -16 69 -26 -8 -18 -197 8
-197 7 0 16 6 18 13 4 10 6 10 6 0 1 -7 8 -13 17 -13 15 0 16 9 10 61 -3 34
-6 82 -6 105 0 32 -4 44 -15 44 -12 0 -15 -16 -17 -77z"/>
<path d="M8590 4665 c0 -101 1 -105 21 -105 20 0 21 4 15 53 -3 28 -6 76 -6
105 0 39 -4 52 -15 52 -12 0 -15 -18 -15 -105z"/>
<path d="M8633 4703 c4 -38 7 -85 7 -105 0 -27 4 -38 15 -38 12 0 15 16 15 83
0 97 -7 127 -28 127 -12 0 -14 -11 -9 -67z"/>
<path d="M8680 4671 c0 -61 4 -102 11 -107 21 -13 26 12 21 109 -3 73 -8 97
-18 97 -11 0 -14 -22 -14 -99z"/>
<path d="M8725 4668 c4 -57 8 -105 10 -107 3 -2 11 -1 20 2 12 5 15 23 15 84
0 99 -7 123 -32 123 -20 0 -20 -4 -13 -102z"/>
<path d="M8780 4663 c0 -94 2 -104 18 -101 15 3 17 15 16 97 -2 115 14 108 18
-9 2 -50 7 -84 13 -83 11 3 19 123 10 169 -4 26 -9 30 -40 31 l-35 1 0 -105z"/>
<path d="M4452 4139 c-44 -9 -107 -49 -187 -118 -38 -34 -74 -61 -78 -61 -4 0
-21 7 -37 15 -26 14 -28 18 -18 35 18 29 3 35 -28 11 -21 -16 -30 -18 -46 -10
-18 10 -18 12 -4 28 9 10 16 23 16 29 0 19 -25 14 -46 -9 -19 -21 -33 -20 -90
1 -25 10 -26 12 -10 29 18 19 21 41 7 41 -6 0 -22 -11 -37 -24 -24 -20 -32
-22 -60 -13 -30 9 -37 7 -73 -24 -21 -19 -40 -37 -40 -40 -1 -4 47 -39 107
-78 95 -64 172 -139 172 -168 0 -5 -26 -38 -57 -74 -32 -35 -72 -82 -88 -102
l-30 -38 -65 10 c-105 17 -118 15 -140 -21 -11 -18 -20 -36 -20 -39 0 -4 28
-18 63 -33 114 -49 110 -45 133 -126 11 -40 25 -75 30 -76 5 -2 29 7 54 19
l45 22 -4 60 c-9 123 -15 110 92 198 l98 80 38 -37 c26 -25 54 -74 91 -156 29
-66 57 -120 63 -120 5 0 27 14 49 31 36 29 39 35 33 68 -5 30 -2 41 14 56 12
10 21 24 21 32 0 16 -22 17 -37 2 -11 -11 -14 -4 -28 82 -5 26 -2 39 9 48 16
14 22 51 8 51 -4 0 -13 -5 -19 -11 -22 -22 -25 11 -3 38 23 29 13 56 -13 34
-12 -9 -17 -6 -25 19 -11 29 -9 32 59 92 89 79 137 145 154 208 l13 49 -28 -2
c-16 -1 -42 -5 -58 -8z m24 -60 c-1 -12 -22 -43 -48 -68 -27 -25 -48 -50 -48
-56 -1 -13 -104 -115 -117 -115 -6 0 -30 -21 -54 -47 -24 -27 -47 -47 -51 -46
-4 2 -17 -10 -30 -25 -13 -15 -40 -38 -61 -51 -20 -12 -42 -31 -47 -42 -6 -10
-16 -19 -23 -19 -6 0 -23 -11 -37 -24 -59 -57 -79 -74 -84 -68 -3 3 -1 11 5
19 6 7 8 13 3 13 -5 0 2 7 14 16 12 8 22 19 22 24 0 5 24 33 53 62 28 29 51
56 50 60 -2 4 12 18 30 30 19 12 41 34 50 50 9 15 22 28 29 28 7 0 30 18 52
40 21 22 43 40 48 40 5 0 6 5 2 12 -4 6 -3 8 3 5 6 -4 25 9 42 28 17 19 35 35
40 35 5 0 20 12 33 28 13 15 35 33 50 41 15 8 24 19 21 25 -3 6 -3 8 2 4 4 -4
17 -1 29 7 11 8 21 15 22 15 0 0 0 -10 0 -21z m-614 -52 c9 -3 18 -2 20 3 2 6
19 5 41 -2 24 -7 36 -16 33 -24 -5 -14 9 -27 32 -30 6 -1 12 1 12 6 0 4 9 6
19 3 11 -3 18 -10 15 -16 -2 -7 0 -18 5 -25 7 -12 13 -11 38 2 28 14 73 12 73
-3 0 -4 -26 -33 -58 -64 l-58 -58 -62 62 c-34 33 -62 57 -62 52 0 -4 -5 0 -11
10 -5 9 -17 17 -24 17 -8 0 -15 3 -15 8 0 11 -72 57 -84 54 -6 -1 -1 6 11 17
12 10 19 22 15 27 -4 5 4 0 18 -12 14 -12 33 -24 42 -27z m428 -250 c0 -2 -11
-19 -25 -37 -23 -31 -24 -36 -10 -46 9 -7 25 -10 35 -7 26 7 25 -8 -2 -31 -21
-18 -21 -19 -3 -32 10 -8 25 -14 33 -14 7 0 11 -4 8 -9 -3 -5 -2 -30 3 -55 5
-26 5 -46 0 -46 -5 0 -9 -7 -9 -15 0 -8 6 -15 14 -15 27 0 29 -39 4 -60 -29
-25 -38 -25 -38 0 0 26 -21 70 -33 70 -6 0 -7 3 -4 7 4 3 0 17 -9 31 -9 13
-18 36 -20 50 -3 15 -11 30 -17 34 -7 4 -8 8 -3 8 4 0 -8 18 -28 40 -20 23
-34 45 -31 51 4 5 10 7 15 4 5 -3 17 6 28 20 11 14 24 25 30 25 5 0 15 7 22
15 11 13 40 21 40 12z m-542 -232 c41 -4 48 -10 34 -28 -7 -8 -9 -16 -6 -20
15 -15 -38 -16 -61 -1 -14 9 -25 13 -25 9 0 -5 -9 3 -21 16 -19 22 -19 24 -2
30 10 4 25 5 33 2 8 -3 30 -7 48 -8z m138 -133 c1 -23 4 -49 8 -57 3 -8 0 -15
-7 -15 -7 0 -21 -3 -33 -6 -18 -5 -23 0 -29 28 -12 50 -12 51 10 75 31 34 50
25 51 -25z"/>
<path d="M2928 3783 c-21 -8 -38 -19 -38 -24 0 -11 -4 -12 54 6 27 8 62 15 78
15 17 0 27 4 23 10 -9 15 -75 11 -117 -7z"/>
<path d="M5457 3715 c5 -14 52 -45 68 -45 14 0 2 17 -28 38 -39 26 -49 28 -40
7z"/>
<path d="M6682 3685 c0 -16 2 -22 5 -12 2 9 2 23 0 30 -3 6 -5 -1 -5 -18z"/>
<path d="M2902 3621 c-30 -10 -61 -26 -70 -35 -15 -15 -14 -16 9 -16 14 0 62
5 106 11 57 7 92 8 119 0 49 -13 54 -7 22 26 -36 35 -111 41 -186 14z"/>
<path d="M2918 3553 c-64 -26 -44 -34 77 -31 63 2 115 7 115 11 0 15 -69 37
-112 36 -24 0 -60 -7 -80 -16z"/>
<path d="M3180 3477 c0 -60 -22 -209 -54 -362 -14 -65 -24 -121 -22 -123 7 -6
45 120 66 214 25 116 37 274 22 300 -10 16 -11 11 -12 -29z"/>
<path d="M5211 3381 c-29 -78 -51 -144 -49 -147 7 -7 75 145 93 209 32 111 9
78 -44 -62z"/>
<path d="M2408 3157 c-60 -106 -100 -188 -95 -193 13 -13 115 149 137 219 21
68 6 58 -42 -26z"/>
<path d="M7501 3061 c-11 -7 -13 -24 -8 -75 l6 -66 -60 0 c-83 0 -102 -12 -95
-58 3 -20 8 -58 11 -84 l6 -48 -40 0 -41 0 0 -44 c0 -69 21 -147 42 -155 10
-3 32 -31 50 -61 l33 -55 210 -6 c116 -3 390 -7 610 -8 l399 -1 62 63 c68 70
109 128 118 170 l6 27 -75 0 c-72 0 -75 1 -75 23 0 22 -3 23 -62 21 -35 -1
-69 -2 -75 -3 -7 -1 -13 -14 -13 -31 l0 -30 119 0 c138 0 155 -4 140 -31 -9
-18 -25 -19 -342 -18 -183 1 -505 5 -717 8 l-385 6 -3 23 -3 22 350 0 351 0 0
35 0 35 -75 0 c-74 0 -75 0 -75 -26 0 -24 -2 -25 -47 -22 l-48 3 -6 118 c-4
66 -11 123 -15 127 -5 5 -31 10 -59 12 l-50 3 -3 40 c-4 62 -11 85 -27 85 -20
0 -27 -33 -19 -85 6 -44 5 -45 -20 -45 -25 0 -26 2 -26 54 0 81 -12 100 -49
77z m31 -68 c2 -32 1 -62 -4 -67 -4 -6 -8 -1 -8 11 0 11 -3 41 -6 67 -4 29 -3
46 4 46 5 0 12 -26 14 -57z m187 -106 c0 -16 -2 -18 -7 -7 -4 9 -13 15 -19 14
-7 -1 -17 -2 -23 -3 -14 -2 -12 -58 3 -65 9 -3 7 -9 -5 -19 -21 -16 -22 -30
-8 -58 9 -15 15 -17 30 -9 16 8 19 21 18 61 0 27 2 53 6 56 3 3 6 -12 6 -33 0
-22 4 -44 9 -49 4 -6 6 -26 4 -46 -4 -32 -8 -36 -34 -36 -16 0 -29 4 -29 9 0
5 -4 7 -9 4 -4 -3 -16 3 -25 13 -11 13 -14 21 -7 26 15 8 14 55 0 55 -8 0 -8
5 1 15 8 9 10 29 7 49 -6 37 -9 35 66 43 12 1 17 -5 16 -20z m-127 -6 c-6 -3
-10 -34 -10 -69 0 -35 -3 -66 -6 -69 -3 -4 -6 4 -6 17 0 13 -7 32 -17 42 -9
10 -12 18 -6 18 5 0 10 14 11 30 0 22 -4 30 -16 30 -13 0 -14 2 -4 9 7 4 25 6
39 3 13 -3 20 -7 15 -11z m-147 -1 c-3 -5 -12 -10 -18 -10 -7 0 -6 4 3 10 19
12 23 12 15 0z m62 -6 c-3 -3 -12 -4 -19 -1 -8 3 -5 6 6 6 11 1 17 -2 13 -5z
m-62 -34 c3 -5 1 -10 -4 -10 -6 0 -11 5 -11 10 0 6 2 10 4 10 3 0 8 -4 11 -10z
m55 -57 c-10 -16 -11 -16 -6 -1 3 10 0 20 -6 24 -7 4 -6 9 3 15 18 11 24 -14
9 -38z m-95 27 c3 -5 2 -10 -4 -10 -5 0 -13 5 -16 10 -3 6 -2 10 4 10 5 0 13
-4 16 -10z m50 0 c-3 -5 -12 -7 -20 -3 -21 7 -19 13 6 13 11 0 18 -4 14 -10z
m130 -104 c19 -8 35 -17 35 -20 0 -4 -70 -6 -155 -6 -162 0 -200 11 -92 28 95
14 174 14 212 -2z m-17 -145 c-4 -22 -27 -24 -135 -16 -60 4 -93 11 -93 18 0
8 35 12 115 13 99 0 115 -2 113 -15z m870 -2 c149 0 272 -4 272 -8 0 -4 -26
-33 -57 -64 l-57 -56 -579 4 c-319 3 -582 7 -585 10 -3 3 -7 11 -8 18 -1 7 -5
19 -8 27 -5 13 5 16 56 17 94 2 104 5 129 34 l24 28 270 -5 c149 -2 393 -4
543 -5z"/>
<path d="M4997 2807 c-120 -339 -171 -541 -182 -717 l-5 -75 19 95 c24 124 58
249 137 504 66 214 118 405 112 411 -1 2 -38 -97 -81 -218z"/>
<path d="M8213 2990 c-25 -10 -26 -11 -17 -34 5 -12 21 -16 70 -16 62 0 64 1
64 25 0 22 -4 25 -34 25 -19 0 -40 2 -48 4 -7 3 -23 1 -35 -4z"/>
<path d="M8340 2965 c0 -25 1 -25 81 -25 78 0 80 1 77 23 -3 20 -9 22 -80 25
-78 3 -78 3 -78 -23z"/>
<path d="M8034 2915 c-14 -35 3 -45 76 -45 67 0 70 1 70 24 0 29 -16 36 -86
36 -39 0 -56 -4 -60 -15z"/>
<path d="M8200 2895 c0 -24 2 -25 65 -25 63 0 65 1 65 25 0 24 -2 25 -65 25
-63 0 -65 -1 -65 -25z"/>
<path d="M8340 2911 c0 -35 13 -41 86 -41 72 0 74 1 74 25 0 25 -1 25 -80 25
-44 0 -80 -4 -80 -9z"/>
<path d="M8515 2900 c-11 -33 3 -40 81 -40 65 0 74 2 74 18 0 31 -22 42 -86
42 -54 0 -64 -3 -69 -20z"/>
<path d="M2980 2860 c-25 -11 -53 -22 -62 -26 -10 -3 -18 -11 -18 -16 0 -6 7
-7 16 -4 9 3 26 6 40 6 13 0 38 13 56 30 38 34 31 36 -32 10z"/>
<path d="M5221 2816 c-12 -49 -13 -276 -2 -316 6 -17 10 5 14 70 12 172 14
290 7 290 -4 0 -13 -20 -19 -44z"/>
<path d="M7910 2851 c-29 -5 -36 -11 -38 -33 l-3 -28 75 0 76 0 0 35 c0 34 -1
35 -37 34 -21 -1 -54 -4 -73 -8z"/>
<path d="M8040 2828 l0 -33 57 -2 c79 -4 95 3 91 35 -3 26 -5 27 -75 30 l-73
3 0 -33z"/>
<path d="M8207 2853 c-4 -3 -7 -17 -7 -30 0 -22 4 -23 65 -23 62 0 65 1 65 24
0 16 -7 26 -22 30 -31 8 -93 8 -101 -1z"/>
<path d="M8350 2826 c0 -22 5 -25 54 -31 74 -10 90 -5 94 28 l3 27 -75 0 c-74
0 -76 -1 -76 -24z"/>
<path d="M8514 2835 c-14 -36 3 -45 81 -45 l76 0 -3 28 c-3 26 -5 27 -76 30
-58 2 -73 0 -78 -13z"/>
<path d="M4313 2765 c40 -82 72 -181 131 -396 30 -112 65 -229 76 -259 l20
-55 -4 65 c-8 105 -122 474 -186 600 -37 71 -69 111 -37 45z"/>
<path d="M2281 2700 c-1 -98 42 -556 53 -567 18 -19 2 242 -33 517 l-19 145
-1 -95z"/>
<path d="M5320 2730 c-21 -41 -33 -83 -36 -119 l-4 -56 26 65 c29 72 56 162
49 168 -2 2 -18 -24 -35 -58z"/>
<path d="M5520 2777 l-25 -11 28 -4 c33 -4 57 3 57 18 0 13 -28 12 -60 -3z"/>
<path d="M7870 2760 c0 -18 7 -20 75 -20 68 0 75 2 75 20 0 18 -7 20 -75 20
-68 0 -75 -2 -75 -20z"/>
<path d="M8040 2760 c0 -16 7 -20 38 -20 20 0 54 -3 75 -6 35 -6 37 -5 37 20
0 26 -1 26 -75 26 -68 0 -75 -2 -75 -20z"/>
<path d="M8210 2755 c0 -24 2 -25 66 -25 62 0 65 1 62 23 -3 20 -9 22 -65 25
-62 3 -63 2 -63 -23z"/>
<path d="M8350 2756 c0 -30 16 -36 91 -36 59 0 59 0 59 30 l0 30 -75 0 c-72 0
-75 -1 -75 -24z"/>
<path d="M8510 2750 l0 -30 75 0 c72 0 75 1 75 24 0 19 -6 24 -37 30 -21 3
-55 6 -75 6 -36 0 -38 -2 -38 -30z"/>
<path d="M8042 2683 l3 -38 75 0 75 0 0 35 0 35 -78 3 -78 3 3 -38z"/>
<path d="M8215 2712 c-3 -3 -5 -21 -5 -39 l0 -34 63 3 c62 3 62 3 60 32 -1 16
-3 30 -5 31 -7 5 -108 12 -113 7z"/>
<path d="M8352 2679 l3 -34 70 0 c69 0 70 0 73 28 3 24 0 27 -26 27 -16 0 -50
3 -76 6 l-47 7 3 -34z"/>
<path d="M6235 2591 c-16 -73 -23 -202 -14 -278 15 -138 24 -129 24 25 0 81 4
177 8 215 5 41 4 67 -2 67 -5 0 -12 -13 -16 -29z"/>
<path d="M2730 2570 c0 -30 35 -95 65 -118 32 -25 109 -56 126 -50 7 2 -11 21
-39 41 -28 21 -73 63 -101 93 -41 45 -51 52 -51 34z"/>
<path d="M3108 2553 c-36 -40 -71 -93 -65 -100 10 -9 97 86 97 107 0 26 -1 25
-32 -7z"/>
<path d="M5291 2209 c-1 -17 129 -538 152 -609 35 -107 12 15 -47 250 -65 257
-103 388 -105 359z"/>
<path d="M6558 2135 c-10 -22 -38 -98 -64 -170 -25 -71 -51 -138 -56 -149 -8
-14 -7 -17 4 -14 22 8 96 167 119 256 24 96 22 136 -3 77z"/>
<path d="M6236 1979 c-10 -55 -38 -182 -63 -282 -60 -245 -101 -437 -93 -437
10 0 38 87 65 205 14 61 41 171 60 246 31 122 65 304 65 352 0 9 -3 17 -8 17
-4 0 -16 -45 -26 -101z"/>
<path d="M3115 1526 c-53 -55 -107 -101 -132 -112 -42 -19 -55 -34 -30 -34 28
0 156 70 190 104 46 46 94 138 70 135 -4 -1 -48 -43 -98 -93z"/>
<path d="M3116 1289 c-42 -35 -74 -64 -72 -67 3 -2 27 8 55 24 47 25 109 89
98 100 -2 2 -39 -23 -81 -57z"/>
<path d="M3167 1208 c-95 -116 -148 -239 -307 -717 -66 -199 -131 -390 -145
-426 -22 -60 -23 -65 -6 -65 15 0 37 60 125 337 59 186 121 381 138 433 42
132 76 202 145 306 52 78 101 174 89 174 -3 0 -20 -19 -39 -42z"/>
<path d="M4730 1169 c0 -4 18 -51 41 -104 101 -243 204 -409 324 -524 73 -69
140 -117 104 -75 -246 292 -253 302 -367 529 -65 129 -101 190 -102 174z"/>
<path d="M2655 1013 c-60 -118 -207 -344 -412 -635 -126 -180 -239 -365 -228
-376 4 -4 13 2 21 13 213 296 508 741 568 855 71 135 128 260 118 260 -4 0
-34 -53 -67 -117z"/>
</g>
</svg>
